HIERARCHY
ROOT Hips
{
    OFFSET   0.000000   0.000000   0.000000
    CHANNELS 6 Xposition Yposition Zposition Zrotation Xrotation Yrotation
    JOINT Chest
    {
        OFFSET   0.000000   8.007240   0.000000
        CHANNELS 3 Zrotation Xrotation Yrotation
        JOINT Chest2
        {
            OFFSET   0.000000  22.077100   0.000000
            CHANNELS 3 Zrotation Xrotation Yrotation
            JOINT Neck
            {
                OFFSET   0.000000  23.254800   0.000000
                CHANNELS 3 Zrotation Xrotation Yrotation
                JOINT Head
                {
                    OFFSET   0.000000  14.370000   1.956600
                    CHANNELS 3 Zrotation Xrotation Yrotation
                    End Site
                    {
                        OFFSET   0.000000  19.566000   0.000000
                    }
                }
            }
            JOINT LeftCollar
            {
                OFFSET   3.911900  19.017000  -0.467064
                CHANNELS 3 Zrotation Xrotation Yrotation
                JOINT LeftShoulder
                {
                    OFFSET  10.383700   0.000000   0.000000
                    CHANNELS 3 Zrotation Xrotation Yrotation
                    JOINT LeftElbow
                    {
                        OFFSET  26.662100   0.001476   0.000517
                        CHANNELS 3 Zrotation Xrotation Yrotation
                        JOINT LeftWrist
                        {
                            OFFSET  28.869000  -0.000025  -0.000106
                            CHANNELS 3 Zrotation Xrotation Yrotation
                            JOINT LeftFinger0
                            {
                                OFFSET   2.044660  -2.323460   3.252850
                                CHANNELS 3 Zrotation Xrotation Yrotation
                                JOINT LeftFinger01
                                {
                                    OFFSET   3.088130   0.000000   0.000000
                                    CHANNELS 3 Zrotation Xrotation Yrotation
                                    JOINT LeftFinger02
                                    {
                                        OFFSET   2.639460   0.000000   0.000000
                                        CHANNELS 3 Zrotation Xrotation Yrotation
                                        End Site
                                        {
                                            OFFSET   2.582190   0.000000   0.000000
                                        }
                                    }
                                }
                            }
                            JOINT LeftFinger1
                            {
                                OFFSET   8.364480   0.000000   3.252850
                                CHANNELS 3 Zrotation Xrotation Yrotation
                                JOINT LeftFinger11
                                {
                                    OFFSET   4.646930   0.000000   0.000000
                                    CHANNELS 3 Zrotation Xrotation Yrotation
                                    JOINT LeftFinger12
                                    {
                                        OFFSET   2.323460   0.000000   0.000000
                                        CHANNELS 3 Zrotation Xrotation Yrotation
                                        End Site
                                        {
                                            OFFSET   2.273050   0.000000   0.000000
                                        }
                                    }
                                }
                            }
                            JOINT LeftFinger2
                            {
                                OFFSET   8.364490   0.000015   1.078090
                                CHANNELS 3 Zrotation Xrotation Yrotation
                                JOINT LeftFinger21
                                {
                                    OFFSET   5.111620   0.000000   0.000000
                                    CHANNELS 3 Zrotation Xrotation Yrotation
                                    JOINT LeftFinger22
                                    {
                                        OFFSET   2.788160   0.000016   0.000000
                                        CHANNELS 3 Zrotation Xrotation Yrotation
                                        End Site
                                        {
                                            OFFSET   2.727660   0.000000   0.000000
                                        }
                                    }
                                }
                            }
                            JOINT LeftFinger3
                            {
                                OFFSET   7.899780   0.000017  -1.078090
                                CHANNELS 3 Zrotation Xrotation Yrotation
                                JOINT LeftFinger31
                                {
                                    OFFSET   4.646930   0.000000   0.000000
                                    CHANNELS 3 Zrotation Xrotation Yrotation
                                    JOINT LeftFinger32
                                    {
                                        OFFSET   2.323470   0.000000   0.000000
                                        CHANNELS 3 Zrotation Xrotation Yrotation
                                        End Site
                                        {
                                            OFFSET   2.273050   0.000000   0.000000
                                        }
                                    }
                                }
                            }
                            JOINT LeftFinger4
                            {
                                OFFSET   7.435090   0.000000  -3.252850
                                CHANNELS 3 Zrotation Xrotation Yrotation
                                JOINT LeftFinger41
                                {
                                    OFFSET   3.717550   0.000000   0.000000
                                    CHANNELS 3 Zrotation Xrotation Yrotation
                                    JOINT LeftFinger42
                                    {
                                        OFFSET   1.858770   0.000000   0.000000
                                        CHANNELS 3 Zrotation Xrotation Yrotation
                                        End Site
                                        {
                                            OFFSET   1.818440   0.000000   0.000000
                                        }
                                    }
                                }
                            }
                        }
                    }
                }
            }
            JOINT RightCollar
            {
                OFFSET  -3.911900  19.017000  -0.467063
                CHANNELS 3 Zrotation Xrotation Yrotation
                JOINT RightShoulder
                {
                    OFFSET -10.383700   0.000019   0.000000
                    CHANNELS 3 Zrotation Xrotation Yrotation
                    JOINT RightElbow
                    {
                        OFFSET -26.662100   0.001175   0.000102
                        CHANNELS 3 Zrotation Xrotation Yrotation
                        JOINT RightWrist
                        {
                            OFFSET -28.869000   0.000016  -0.000079
                            CHANNELS 3 Zrotation Xrotation Yrotation
                            JOINT RightFinger0
                            {
                                OFFSET  -2.044660  -2.323490   3.252850
                                CHANNELS 3 Zrotation Xrotation Yrotation
                                JOINT RightFinger01
                                {
                                    OFFSET  -3.088140   0.000000   0.000000
                                    CHANNELS 3 Zrotation Xrotation Yrotation
                                    JOINT RightFinger02
                                    {
                                        OFFSET  -2.639460   0.000000   0.000000
                                        CHANNELS 3 Zrotation Xrotation Yrotation
                                        End Site
                                        {
                                            OFFSET  -2.582190   0.000000   0.000000
                                        }
                                    }
                                }
                            }
                            JOINT RightFinger1
                            {
                                OFFSET  -8.364480   0.000000   3.252850
                                CHANNELS 3 Zrotation Xrotation Yrotation
                                JOINT RightFinger11
                                {
                                    OFFSET  -4.646930   0.000000   0.000000
                                    CHANNELS 3 Zrotation Xrotation Yrotation
                                    JOINT RightFinger12
                                    {
                                        OFFSET  -2.323470   0.000000   0.000000
                                        CHANNELS 3 Zrotation Xrotation Yrotation
                                        End Site
                                        {
                                            OFFSET  -2.273050   0.000000   0.000000
                                        }
                                    }
                                }
                            }
                            JOINT RightFinger2
                            {
                                OFFSET  -8.364480   0.000000   1.078090
                                CHANNELS 3 Zrotation Xrotation Yrotation
                                JOINT RightFinger21
                                {
                                    OFFSET  -5.111620   0.000000   0.000000
                                    CHANNELS 3 Zrotation Xrotation Yrotation
                                    JOINT RightFinger22
                                    {
                                        OFFSET  -2.788160   0.000000   0.000000
                                        CHANNELS 3 Zrotation Xrotation Yrotation
                                        End Site
                                        {
                                            OFFSET  -2.727660   0.000000   0.000000
                                        }
                                    }
                                }
                            }
                            JOINT RightFinger3
                            {
                                OFFSET  -7.899780   0.000000  -1.078090
                                CHANNELS 3 Zrotation Xrotation Yrotation
                                JOINT RightFinger31
                                {
                                    OFFSET  -4.646930   0.000000   0.000000
                                    CHANNELS 3 Zrotation Xrotation Yrotation
                                    JOINT RightFinger32
                                    {
                                        OFFSET  -2.323470   0.000000   0.000000
                                        CHANNELS 3 Zrotation Xrotation Yrotation
                                        End Site
                                        {
                                            OFFSET  -2.273050   0.000000   0.000000
                                        }
                                    }
                                }
                            }
                            JOINT RightFinger4
                            {
                                OFFSET  -7.435090   0.000000  -3.252850
                                CHANNELS 3 Zrotation Xrotation Yrotation
                                JOINT RightFinger41
                                {
                                    OFFSET  -3.717550   0.000000   0.000000
                                    CHANNELS 3 Zrotation Xrotation Yrotation
                                    JOINT RightFinger42
                                    {
                                        OFFSET  -1.858770   0.000000   0.000000
                                        CHANNELS 3 Zrotation Xrotation Yrotation
                                        End Site
                                        {
                                            OFFSET  -1.818440   0.000000   0.000000
                                        }
                                    }
                                }
                            }
                        }
                    }
                }
            }
        }
    }
    JOINT LeftHip
    {
        OFFSET   9.783040   0.000000   0.000000
        CHANNELS 3 Zrotation Xrotation Yrotation
        JOINT LeftKnee
        {
            OFFSET   0.000032 -41.789100  -0.002222
            CHANNELS 3 Zrotation Xrotation Yrotation
            JOINT LeftAnkle
            {
                OFFSET   0.000087 -41.133200  -0.000135
                CHANNELS 3 Zrotation Xrotation Yrotation
                JOINT LeftToe
                {
                    OFFSET   0.000000  -6.358960  14.674500
                    CHANNELS 3 Zrotation Xrotation Yrotation
                    End Site
                    {
                        OFFSET   0.000000   0.000000   3.913200
                    }
                }
            }
        }
    }
    JOINT RightHip
    {
        OFFSET  -9.783040   0.000000   0.000000
        CHANNELS 3 Zrotation Xrotation Yrotation
        JOINT RightKnee
        {
            OFFSET   0.000047 -41.789100  -0.000896
            CHANNELS 3 Zrotation Xrotation Yrotation
            JOINT RightAnkle
            {
                OFFSET  -0.000117 -41.133300  -0.000248
                CHANNELS 3 Zrotation Xrotation Yrotation
                JOINT RightToe
                {
                    OFFSET   0.000000  -6.358970  14.674500
                    CHANNELS 3 Zrotation Xrotation Yrotation
                    End Site
                    {
                        OFFSET   0.000000   0.000000   3.913200
                    }
                }
            }
        }
    }
}
MOTION
Frames: 4
Frame Time:   0.016667
 -1.095300  89.488600   2.108600  -2.684530  -9.720650  -5.784620   3.084440   3.414040   0.100744   6.179360   6.828570   0.016964   2.301880   1.782810  -0.072073   3.791810   3.597620   9.068110   1.205830   1.020560  -3.456580 -53.453200 -12.506900 -63.102200   1.335140 -19.319000 -111.053000  -6.129360  22.660500  -0.076479  59.040400  54.333300 -108.293000  15.672300  -0.000655   0.000310  12.836200  -0.003333  -0.008179 -27.022200   3.305180  -6.406100 -22.257300   0.008746   0.000329 -15.580100   0.005174  -0.000240 -27.540700   3.251750  -6.210920 -30.320500  -0.004226   0.002492 -20.193500  -0.003198  -0.000370 -27.770800   1.067720  -2.027750 -30.668100  -0.006972   0.004708 -20.424900  -0.005269  -0.001813 -25.679000  -0.919801   1.908310 -38.533100  -0.005189  -0.001664 -25.663000  -0.004048  -0.001654  -3.404820  -3.099740   7.493160  47.509800 -14.904300  55.085300 -16.780000 -24.554200  97.160000  18.264500  12.415100  28.009100 -59.040400  54.333300 108.293000 -16.967600  -0.006568  -0.001916 -13.483800  -0.003165   0.000827  16.544500   3.142610  10.474400  13.773400   0.001576   0.001863   9.641420   0.000968   0.001737  19.629000   2.107020   5.880500  19.734800   0.001485   0.004294  13.143400   0.004177  -0.005288  19.734400   0.074771   0.211494  19.733700   0.003225   0.001800  13.142700   0.002375  -0.002376  23.677700  -0.842406  -1.914180  35.536200   0.001632   0.000513  23.667200   0.000334  -0.003233   2.793230  14.552700   4.321840   1.586990   0.355629   7.432380  -3.756800  -3.532740  12.993000  -0.000000   0.000000   0.000000   1.814520   9.464720  -5.205260   1.276650   4.055220  -2.621130  -6.512550  -2.988230  -1.692470  -0.000000   0.000000   0.000000
 -1.120190  89.469500   2.134580  -2.692540  -9.701080  -5.823860   3.065510   3.384150   0.118603   6.140100   6.769790   0.055502   2.339930   1.819180  -0.074323   3.854880   3.670050   8.945520   1.254780   0.990976  -3.458660 -52.879500 -12.601500 -63.147200   1.208200 -19.660300 -110.793000  -6.272480  22.588100   0.078860  59.040400  54.333300 -108.293000  15.645800  -0.000646   0.000165  12.822900  -0.003205  -0.008156 -26.562200   3.389370  -6.736990 -21.894900   0.008720   0.000319 -15.326400   0.005191  -0.000236 -27.432800   3.429080  -6.570080 -29.764300  -0.015580   0.007190 -19.823000  -0.011381  -0.000500 -27.668100   1.243400  -2.366710 -30.045600  -0.020256   0.008904 -20.010400  -0.014684  -0.001764 -25.241700  -0.737266   1.571850 -37.876300  -0.016206  -0.001628 -25.225600  -0.011683  -0.001689  -3.481530  -3.132640   7.447700  47.188500 -15.039500  55.417700 -16.638600 -24.745600  96.765700  19.072200  11.707500  28.156900 -59.040400  54.333300 108.293000 -16.934600  -0.006629  -0.001931 -13.467300  -0.003172   0.000812  15.897700   2.898690  10.075700  13.214600  -0.000626   0.001845   9.250250  -0.000468  -0.000364  19.182300   1.912680   5.487400  19.272500  -0.000372   0.004039  12.835500   0.003939  -0.005221  19.439900  -0.011604  -0.031245  19.438900   0.003156   0.001685  12.946300   0.002315  -0.002381  23.349200  -0.931367  -2.154400  35.050000   0.001033   0.000330  23.343400  -0.000199  -0.003173   2.798960  14.535000   4.327490   1.599300   0.391767   7.444030  -3.769840  -3.566050  13.013800   0.000000   0.000000   0.000000   1.828400   9.449330  -5.198900   1.269950   4.065430  -2.616430  -6.515220  -3.000000  -1.667160   0.000000   0.000000  -0.000000
 -1.143580  89.449900   2.157380  -2.697320  -9.679740  -5.854180   3.046160   3.353900   0.136096   6.100060   6.710310   0.093345   2.370620   1.852900  -0.075091   3.904430   3.737850   8.845360   1.288370   0.954430  -3.454880 -52.380700 -12.638800 -63.228500   1.509160 -19.970700 -110.445000  -5.518290  23.551400  -0.119097  59.040400  54.333300 -108.293000  15.684600  -0.000649   0.000156  12.842300  -0.003067  -0.008131 -26.703000   3.387660  -6.678510 -22.009100   0.008700   0.000311 -15.406400   0.005197  -0.000234 -27.380500   3.400610  -6.525310 -29.484100  -0.015202   0.007030 -19.636400  -0.011108  -0.000618 -27.566000   1.170640  -2.234210 -29.533600  -0.019911   0.008808 -19.669400  -0.014446  -0.001713 -24.950600  -0.766148   1.643520 -37.441300  -0.015853  -0.001581 -24.935900  -0.011452  -0.001706  -3.552000  -3.164060   7.400920  47.003200 -15.142300  55.756800 -16.640500 -24.921200  96.516600  19.046400  12.099800  28.023200 -59.040400  54.333300 108.293000 -16.893700  -0.006667  -0.001910 -13.446800  -0.003191   0.000796  15.609900   2.754480   9.773670  12.962700  -0.000810   0.001825   9.073920  -0.000717  -0.000966  19.021400   1.784830   5.180170  19.103200  -0.000412   0.003591  12.722800   0.003540  -0.005150  19.296500  -0.101914  -0.286678  19.296700   0.003043   0.001476  12.851600   0.002202  -0.002386  23.180400  -0.997128  -2.321760  34.803100   0.002916   0.000001  23.178900  -0.000255  -0.003071   2.802550  14.538300   4.332910   1.610230   0.379315   7.452700  -3.778490  -3.570300  13.033500   0.000000   0.000000  -0.000000   1.843930   9.431750  -5.196540   1.259900   4.079480  -2.606840  -6.515240  -3.015320  -1.653170  -0.000000   0.000000   0.000000
 -1.162900  89.431400   2.179820  -2.699690  -9.657820  -5.876430   3.028180   3.322340   0.150669   6.062940   6.648030   0.125300   2.390340   1.886140  -0.075310   3.938950   3.804790   8.782140   1.313790   0.932015  -3.434590 -52.162700 -12.638800 -63.344300   1.825750 -20.071500 -110.154000  -4.063830  25.386200  -0.543154  59.040400  54.333300 -108.293000  15.770500  -0.000654   0.000154  12.885200  -0.002931  -0.008104 -26.988500   3.385970  -6.615950 -22.241100   0.008680   0.000303 -15.568800   0.005201  -0.000233 -27.310300   3.323410  -6.401590 -29.162500  -0.012552   0.005905 -19.422200  -0.009198  -0.000730 -27.433600   1.025250  -1.967240 -28.942900  -0.017497   0.008136 -19.276000  -0.012784  -0.001659 -24.631100  -0.816454   1.783490 -36.961100  -0.013379  -0.001538 -24.616100  -0.009830  -0.001721  -3.619500  -3.198390   7.352760  46.906700 -15.192000  56.089200 -16.718100 -25.096700  96.368000  18.743900  12.874700  27.757700 -59.040400  54.333300 108.293000 -16.867600  -0.006700  -0.001889 -13.433800  -0.003209   0.000780  15.480500   2.663540   9.529540  12.846100  -0.000852   0.001803   8.992250  -0.000795  -0.001222  18.972900   1.732340   5.028440  19.048900  -0.000418   0.003200  12.686600   0.003203  -0.005077  19.250800  -0.153047  -0.433509  19.252400   0.002954   0.001282  12.822100   0.002096  -0.002392  23.151800  -1.026540  -2.393400  34.763800   0.005841  -0.000297  23.152700  -0.000263  -0.002985   2.804350  14.543300   4.336130   1.620570   0.359048   7.459490  -3.784670  -3.572230  13.049500  -0.000000   0.000000   0.000000   1.857610   9.413820  -5.195880   1.249460   4.094420  -2.590770  -6.515490  -3.031440  -1.648390   0.000000   0.000000  -0.000000
